<svg id="Layer_1" data-name="Layer 1" xmlns="http://www.w3.org/2000/svg" width="3.7801in" height="2.2776in" viewBox="0 0 272.17 163.9874"><defs><style>.cls-1{fill:#fff200;}.cls-2{fill:#fff;}.cls-3,.cls-4,.cls-6{fill:#231f20;}.cls-4{stroke:#000;stroke-width:1.021px;}.cls-5,.cls-8{fill:#ed1c24;}.cls-5,.cls-7{stroke:#fff;}.cls-5{stroke-width:8.6402px;}.cls-6{stroke:#231f20;stroke-width:5.011px;}.cls-7{fill:#e31b23;stroke-width:0.9825px;}</style></defs><path class="cls-1" d="M9.81,161.8272a7.9351,7.9351,0,0,1-7.65-8.1758V78.4634a7.9345,7.9345,0,0,1,7.65-8.1748H262.3565a7.9364,7.9364,0,0,1,7.6533,8.1748v75.188a7.9369,7.9369,0,0,1-7.6533,8.1758Z"/><path class="cls-1" d="M262.3565,72.4488a5.7736,5.7736,0,0,1,5.4931,6.0146v75.188a5.7733,5.7733,0,0,1-5.4931,6.0156H9.81a5.77,5.77,0,0,1-5.49-6.0156V78.4634a5.77,5.77,0,0,1,5.49-6.0146H262.3565m0-4.32H9.81A10.0938,10.0938,0,0,0,0,78.4634v75.188a10.0949,10.0949,0,0,0,9.81,10.336H262.3565a10.0965,10.0965,0,0,0,9.8135-10.336V78.4634a10.0954,10.0954,0,0,0-9.8135-10.3344Z"/><path class="cls-2" d="M9.81,127.8936a7.935,7.935,0,0,1-7.65-8.1757V44.53a7.9346,7.9346,0,0,1,7.65-8.1753H262.3565A7.9364,7.9364,0,0,1,270.01,44.53v75.1875a7.9369,7.9369,0,0,1-7.6533,8.1757Z"/><path class="cls-2" d="M262.3565,38.5152A5.7738,5.7738,0,0,1,267.85,44.53v75.1875a5.7733,5.7733,0,0,1-5.4931,6.0156H9.81a5.77,5.77,0,0,1-5.49-6.0156V44.53a5.7705,5.7705,0,0,1,5.49-6.0152H262.3565m0-4.32H9.81A10.0942,10.0942,0,0,0,0,44.53v75.1875a10.0946,10.0946,0,0,0,9.81,10.3357H262.3565a10.0961,10.0961,0,0,0,9.8132-10.3357V44.53a10.0958,10.0958,0,0,0-9.8132-10.3352Z"/><path class="cls-3" d="M268.3272,54.7662V44.1529a5.51,5.51,0,0,0-5.3955-5.6187H9.1783a5.5094,5.5094,0,0,0-5.3931,5.6187V54.7666Z"/><path class="cls-4" d="M9.7178,87.8428h6.9248V99.8272H30.0918V87.8428h6.9258v32.1426H30.0918V106.0928H16.6426v13.8926H9.7178Z"/><path class="cls-4" d="M69.9043,107.5918c0,7.58-4.5273,13.21-13.228,13.21-8.7436,0-13.2729-5.63-13.2729-13.21V87.8428h6.9257v19.4766c0,3.9492,2.6626,6.9453,6.3472,6.9453,3.64,0,6.3037-2.9961,6.3037-6.9453V87.8428h6.9243Z"/><path class="cls-4" d="M76.292,87.8428H86.7671l7.2368,20.9746h.0879l7.2808-20.9746h10.4316v32.1426h-6.9257V95.335H104.79l-8.2569,24.65H91.2515l-7.9468-24.65h-.0879v24.65H76.292Z"/><path class="cls-4" d="M118.189,87.8428h11.7187c5.5044,0,11.4976,1.1817,11.4976,8.1719a7.2072,7.2072,0,0,1-5.4165,7.083v.0908a7.64,7.64,0,0,1,6.8814,7.8535c0,6.7188-6.2149,8.9434-11.8082,8.9434H118.189Zm6.9243,12.8477H130.13c2.1309,0,4.35-.9082,4.35-3.4951,0-2.6788-2.4858-3.3594-4.6616-3.3594h-4.7051Zm0,13.3027h6.2158c2.1753,0,4.6162-.956,4.6162-3.7676,0-3.0429-3.33-3.5439-5.5927-3.5439h-5.2393Z"/><path class="cls-4" d="M162.2207,87.0264c9.8077,0,16.9561,6.582,16.9561,16.8867,0,10.3067-7.1484,16.8887-16.9561,16.8887-9.8125,0-16.96-6.582-16.96-16.8887C145.2608,93.6084,152.4082,87.0264,162.2207,87.0264Zm0,27.2383c5.9014,0,9.7637-4.3584,9.7637-10.3516,0-5.99-3.8623-10.35-9.7637-10.35-5.9062,0-9.7675,4.3594-9.7675,10.35C152.4532,109.9063,156.3145,114.2647,162.2207,114.2647Z"/><path class="cls-4" d="M184.1426,87.8428h6.9238v25.6035h12.8262v6.5391h-19.75Z"/><path class="cls-4" d="M207.7071,87.8428h10.3886c10.1192,0,18.6,4.4043,18.6,16.1621,0,10.3955-8.3027,15.98-17.6679,15.98h-11.32Zm6.9257,25.6035h3.5958c6.4355,0,11.2753-2.4941,11.2753-9.8066,0-6.3076-4.93-9.2578-10.7871-9.2578h-4.084Z"/><path class="cls-4" d="M247.4756,94.1084H238.51V87.8428h24.8584v6.2656H254.4v25.877h-6.9248Z"/><path class="cls-3" d="M262.3565,38.5153A5.7737,5.7737,0,0,1,267.85,44.53v75.1875a5.7733,5.7733,0,0,1-5.4931,6.0156H9.81a5.77,5.77,0,0,1-5.49-6.0156V44.53a5.77,5.77,0,0,1,5.49-6.0151H262.3565m0-1.2343H9.81A7.01,7.01,0,0,0,3.086,44.53v75.1875a7.01,7.01,0,0,0,6.7241,7.25H262.3565a7.0113,7.0113,0,0,0,6.7274-7.25V44.53a7.011,7.011,0,0,0-6.7274-7.2494Z"/><polygon class="cls-5" points="147.199 77.412 124.895 77.437 113.951 55.082 136.079 9.805 158.395 55.082 147.199 77.412"/><polygon class="cls-6" points="146.792 76.756 125.312 76.767 114.766 54.957 136.166 11.322 157.549 55.038 146.792 76.756"/><polygon class="cls-7" points="146.792 76.756 125.312 76.767 114.766 54.957 136.166 11.322 157.549 55.038 146.792 76.756"/><path class="cls-2" d="M136.1665,52.3785h-4.1806V26.6465S126.22,38.3892,125.91,38.7076c.6426,0,.82.1132.82.68-.0137,1.4091,0,33.0615,0,33.0615h5.2363V57.4668l4.2-.0092,4.2066.0092v14.982h5.2324s.0195-31.6524,0-33.0615c0-.5665.1816-.68.8184-.68-.3028-.3184-6.07-12.0611-6.07-12.0611v25.732h-4.1871"/><path class="cls-8" d="M11.7281,135.7557h4.6147l9.4785,14.5352.0552.0546h-.0552l.0552-.0546V135.7557h3.4819V155.32H24.937l-9.6718-15.0049H15.21V155.32H11.7281Z"/><path class="cls-8" d="M49.3941,148.1356c0,4.7246-3.3989,7.6816-7.876,7.6816s-7.8755-2.957-7.8755-7.6816v-12.38h3.4819v12.2686a4.1762,4.1762,0,0,0,4.3936,4.4765,4.1762,4.1762,0,0,0,4.394-4.4765V135.7557h3.482Z"/><path class="cls-8" d="M67.1079,140.3426a5.3324,5.3324,0,0,0-4.1171-1.9346c-4.0347,0-6.7149,3.0948-6.7149,6.9913,0,4.1728,2.68,7.2675,6.7149,7.2675a5.4961,5.4961,0,0,0,4.3935-2.3759l2.874,2.0449a8.6563,8.6563,0,0,1-7.2954,3.4814c-6.0239,0-10.3349-4.09-10.3349-10.1963,0-6.2734,4.311-10.3632,10.3349-10.3632a8.5031,8.5031,0,0,1,6.8535,3.0947Z"/><path class="cls-8" d="M72.6084,135.7557H76.09V152.17h8.3173v3.15H72.6084Z"/><path class="cls-8" d="M86.9512,135.7557h12.96v3.1494H90.4331v4.8086h8.981v3.15h-8.981V152.17h9.9756v3.15H86.9512Z"/><path class="cls-8" d="M110.1646,135.7557h3.0122L121.605,155.32h-3.98l-1.8237-4.4766h-8.4834L105.55,155.32h-3.8964Zm4.4214,12.1035-3.0122-7.959-3.0674,7.959Z"/><path class="cls-8" d="M123.7891,135.7557h6.7978c3.7583,0,7.2955,1.2158,7.2955,5.6094a5.0143,5.0143,0,0,1-4.5323,5.3056l5.1953,8.6495h-4.2l-4.5322-8.29h-2.542v8.29h-3.4819Zm6.19,8.29c1.962,0,4.2554-.166,4.2554-2.708,0-2.3213-2.1553-2.5976-3.9517-2.5976H127.271v5.3056Z"/><path class="cls-8" d="M166.7608,153.8827a16.93,16.93,0,0,1-8.0967,1.9345c-6.0244,0-10.335-4.09-10.335-10.1963,0-6.2734,4.3106-10.3632,10.335-10.3632,2.9844,0,5.665.6357,7.71,2.46l-2.57,2.5977a7.3846,7.3846,0,0,0-5.1123-1.9073c-4.0341,0-6.7148,3.0948-6.7148,6.9913,0,4.1728,2.6807,7.2675,6.7148,7.2675a9.3746,9.3746,0,0,0,4.5879-1.0224V147.03h-4.0068v-3.15h7.4883Z"/><path class="cls-8" d="M177.2071,135.7557H180.22l8.4277,19.5645H184.669l-1.8242-4.4766h-8.4834l-1.7686,4.4766h-3.8965Zm4.4218,12.1035-3.0117-7.959-3.0674,7.959Z"/><path class="cls-8" d="M206.501,148.1356c0,4.7246-3.3994,7.6816-7.876,7.6816s-7.875-2.957-7.875-7.6816v-12.38h3.4815v12.2686a4.3943,4.3943,0,1,0,8.7871,0V135.7557h3.4824Z"/><path class="cls-8" d="M228.166,153.8827a16.929,16.929,0,0,1-8.0966,1.9345c-6.0244,0-10.335-4.09-10.335-10.1963,0-6.2734,4.3106-10.3632,10.335-10.3632,2.9843,0,5.665.6357,7.71,2.46l-2.57,2.5977a7.3839,7.3839,0,0,0-5.1113-1.9073c-4.0352,0-6.7158,3.0948-6.7158,6.9913,0,4.1728,2.6806,7.2675,6.7158,7.2675a9.3759,9.3759,0,0,0,4.5869-1.0224V147.03h-4.0068v-3.15h7.4882Z"/><path class="cls-8" d="M232.2842,135.7557h12.961v3.1494h-9.4786v4.8086h8.98v3.15h-8.98V152.17h9.9756v3.15h-13.458Z"/><path class="cls-8" d="M258.7588,139.9559a4.1249,4.1249,0,0,0-3.4258-1.5479c-1.6035,0-3.206.7188-3.206,2.5147,0,3.9238,9.2851,1.6855,9.2851,8.6494,0,4.2-3.3164,6.2451-7.1572,6.2451a8.11,8.11,0,0,1-6.4111-2.6523l2.625-2.543a4.6159,4.6159,0,0,0,3.8691,2.0449c1.6026,0,3.4268-.8838,3.4268-2.6806,0-4.2832-9.2852-1.8233-9.2852-8.8145,0-4.0351,3.5928-5.914,7.2129-5.914a8.03,8.03,0,0,1,5.6094,2.0175Z"/></svg>