<svg xmlns="http://www.w3.org/2000/svg" viewBox="0 0 500 500" width="500" height="500">
  <style>
    .red { fill: #F40006; }
    .dark { fill: #292929; }
    .light { fill: #f8f9fa; }
  </style>
  <rect class="light" x="0" y="0" width="500" height="500" rx="20" ry="20"/>
  <path class="dark" d="M227.8 250.5c0 13.8-11.2 25-25 25s-25-11.2-25-25s11.2-25 25-25S227.8 236.7 227.8 250.5zM322.2 250.5c0 13.8-11.2 25-25 25s-25-11.2-25-25s11.2-25 25-25S322.2 236.7 322.2 250.5z"/>
  <path class="red" d="M250 170.5c-55.1 0-99.4 44.3-99.4 99.4c0 17.7 4.6 34.5 12.7 49c4.4 7.8 14.5 10.2 22 5.3c7.6-5 9.8-15.1 5.3-22.7c-5.2-9.4-8.2-20.3-8.2-31.9c0-36.9 29.9-66.8 66.8-66.8s66.8 29.9 66.8 66.8c0 11.4-2.8 22.1-7.8 31.4c-4.4 8.1-1.5 18.2 6.6 22.7c8.1 4.4 18.2 1.5 22.7-6.6c8-14.3 12.6-30.9 12.6-48.2C349.4 214.8 305.1 170.5 250 170.5z"/>
  <path class="dark" d="M250 350.5c-12.3 0-23.9-3-34.1-8.3c-7.6-4-10.6-13.3-6.6-20.9s13.3-10.6 20.9-6.6c6.2 3.2 13.2 5.1 20.6 5.1s14.4-1.8 20.6-5.1c7.6-4 16.9-1 20.9 6.6c4 7.6 1 16.9-6.6 20.9C273.9 347.5 262.3 350.5 250 350.5z"/>
  <text x="250" y="130" font-family="Arial" font-size="60" font-weight="bold" text-anchor="middle" class="red">404</text>
</svg>
